<mxfile host="app.diagrams.net" agent="Mozilla/5.0 (Windows NT 10.0; Win64; x64) AppleWebKit/537.36 (KHTML, like Gecko) Chrome/133.0.0.0 Safari/537.36" version="26.1.0">
  <diagram name="Conctretar venta online" id="2YBvvXClWsGukQMizWep">
    <mxGraphModel grid="1" page="1" gridSize="10" guides="1" tooltips="1" connect="1" arrows="1" fold="1" pageScale="1" pageWidth="850" pageHeight="1100" math="0" shadow="0">
      <root>
        <mxCell id="0" />
        <mxCell id="1" parent="0" />
        <mxCell id="hqVMmyuip6Vc-hLQaziX-1" value="" style="shape=umlLifeline;perimeter=lifelinePerimeter;whiteSpace=wrap;html=1;container=1;dropTarget=0;collapsible=0;recursiveResize=0;outlineConnect=0;portConstraint=eastwest;newEdgeStyle={&quot;curved&quot;:0,&quot;rounded&quot;:0};participant=umlActor;" vertex="1" parent="1">
          <mxGeometry x="490" y="60" width="20" height="690" as="geometry" />
        </mxCell>
        <mxCell id="DvZ3FlkIil5nW3OASpPT-5" value="" style="html=1;points=[[0,0,0,0,5],[0,1,0,0,-5],[1,0,0,0,5],[1,1,0,0,-5]];perimeter=orthogonalPerimeter;outlineConnect=0;targetShapes=umlLifeline;portConstraint=eastwest;newEdgeStyle={&quot;curved&quot;:0,&quot;rounded&quot;:0};" vertex="1" parent="hqVMmyuip6Vc-hLQaziX-1">
          <mxGeometry x="5" y="210" width="10" height="20" as="geometry" />
        </mxCell>
        <mxCell id="DvZ3FlkIil5nW3OASpPT-7" value="" style="html=1;points=[[0,0,0,0,5],[0,1,0,0,-5],[1,0,0,0,5],[1,1,0,0,-5]];perimeter=orthogonalPerimeter;outlineConnect=0;targetShapes=umlLifeline;portConstraint=eastwest;newEdgeStyle={&quot;curved&quot;:0,&quot;rounded&quot;:0};" vertex="1" parent="hqVMmyuip6Vc-hLQaziX-1">
          <mxGeometry x="5" y="280" width="10" height="10" as="geometry" />
        </mxCell>
        <mxCell id="hqVMmyuip6Vc-hLQaziX-2" value="" style="shape=umlLifeline;perimeter=lifelinePerimeter;whiteSpace=wrap;html=1;container=1;dropTarget=0;collapsible=0;recursiveResize=0;outlineConnect=0;portConstraint=eastwest;newEdgeStyle={&quot;curved&quot;:0,&quot;rounded&quot;:0};participant=umlActor;" vertex="1" parent="1">
          <mxGeometry x="310" y="60" width="20" height="690" as="geometry" />
        </mxCell>
        <mxCell id="m-GWrjGbHzhmsx1Hn8Fp-3" value="" style="html=1;points=[[0,0,0,0,5],[0,1,0,0,-5],[1,0,0,0,5],[1,1,0,0,-5]];perimeter=orthogonalPerimeter;outlineConnect=0;targetShapes=umlLifeline;portConstraint=eastwest;newEdgeStyle={&quot;curved&quot;:0,&quot;rounded&quot;:0};" vertex="1" parent="hqVMmyuip6Vc-hLQaziX-2">
          <mxGeometry x="5" y="170" width="10" height="20" as="geometry" />
        </mxCell>
        <mxCell id="hqVMmyuip6Vc-hLQaziX-12" value="Realiza transferencia" style="html=1;verticalAlign=bottom;endArrow=block;curved=0;rounded=0;" edge="1" parent="hqVMmyuip6Vc-hLQaziX-2" source="m-GWrjGbHzhmsx1Hn8Fp-3" target="hqVMmyuip6Vc-hLQaziX-2">
          <mxGeometry y="160" width="80" relative="1" as="geometry">
            <mxPoint x="-210" y="170" as="sourcePoint" />
            <mxPoint x="-130" y="170" as="targetPoint" />
            <mxPoint x="-159" as="offset" />
          </mxGeometry>
        </mxCell>
        <mxCell id="hqVMmyuip6Vc-hLQaziX-3" value="" style="shape=umlLifeline;perimeter=lifelinePerimeter;whiteSpace=wrap;html=1;container=1;dropTarget=0;collapsible=0;recursiveResize=0;outlineConnect=0;portConstraint=eastwest;newEdgeStyle={&quot;curved&quot;:0,&quot;rounded&quot;:0};participant=umlActor;" vertex="1" parent="1">
          <mxGeometry x="90" y="60" width="20" height="690" as="geometry" />
        </mxCell>
        <mxCell id="m-GWrjGbHzhmsx1Hn8Fp-2" value="" style="html=1;points=[[0,0,0,0,5],[0,1,0,0,-5],[1,0,0,0,5],[1,1,0,0,-5]];perimeter=orthogonalPerimeter;outlineConnect=0;targetShapes=umlLifeline;portConstraint=eastwest;newEdgeStyle={&quot;curved&quot;:0,&quot;rounded&quot;:0};" vertex="1" parent="hqVMmyuip6Vc-hLQaziX-3">
          <mxGeometry x="5" y="130" width="10" height="20" as="geometry" />
        </mxCell>
        <mxCell id="hqVMmyuip6Vc-hLQaziX-4" value="" style="shape=umlLifeline;perimeter=lifelinePerimeter;whiteSpace=wrap;html=1;container=1;dropTarget=0;collapsible=0;recursiveResize=0;outlineConnect=0;portConstraint=eastwest;newEdgeStyle={&quot;curved&quot;:0,&quot;rounded&quot;:0};participant=umlBoundary;" vertex="1" parent="1">
          <mxGeometry x="690" y="60" width="50" height="690" as="geometry" />
        </mxCell>
        <mxCell id="m-GWrjGbHzhmsx1Hn8Fp-1" value="" style="html=1;points=[[0,0,0,0,5],[0,1,0,0,-5],[1,0,0,0,5],[1,1,0,0,-5]];perimeter=orthogonalPerimeter;outlineConnect=0;targetShapes=umlLifeline;portConstraint=eastwest;newEdgeStyle={&quot;curved&quot;:0,&quot;rounded&quot;:0};" vertex="1" parent="hqVMmyuip6Vc-hLQaziX-4">
          <mxGeometry x="20" y="70" width="10" height="20" as="geometry" />
        </mxCell>
        <mxCell id="DvZ3FlkIil5nW3OASpPT-6" value="" style="html=1;points=[[0,0,0,0,5],[0,1,0,0,-5],[1,0,0,0,5],[1,1,0,0,-5]];perimeter=orthogonalPerimeter;outlineConnect=0;targetShapes=umlLifeline;portConstraint=eastwest;newEdgeStyle={&quot;curved&quot;:0,&quot;rounded&quot;:0};" vertex="1" parent="hqVMmyuip6Vc-hLQaziX-4">
          <mxGeometry x="20" y="100" width="10" height="20" as="geometry" />
        </mxCell>
        <mxCell id="hqVMmyuip6Vc-hLQaziX-5" value="&lt;br&gt;&lt;div&gt;Cliente&lt;/div&gt;" style="text;html=1;align=center;verticalAlign=middle;whiteSpace=wrap;rounded=0;" vertex="1" parent="1">
          <mxGeometry x="70" y="20" width="60" height="30" as="geometry" />
        </mxCell>
        <mxCell id="hqVMmyuip6Vc-hLQaziX-6" value="Sistema de pago" style="text;html=1;align=center;verticalAlign=middle;whiteSpace=wrap;rounded=0;" vertex="1" parent="1">
          <mxGeometry x="270" y="30" width="100" height="30" as="geometry" />
        </mxCell>
        <mxCell id="hqVMmyuip6Vc-hLQaziX-7" value="Administrador de sistema" style="text;html=1;align=center;verticalAlign=middle;whiteSpace=wrap;rounded=0;" vertex="1" parent="1">
          <mxGeometry x="410" y="30" width="180" height="30" as="geometry" />
        </mxCell>
        <mxCell id="hqVMmyuip6Vc-hLQaziX-8" value="Sistema" style="text;html=1;align=center;verticalAlign=middle;whiteSpace=wrap;rounded=0;" vertex="1" parent="1">
          <mxGeometry x="685" y="30" width="60" height="30" as="geometry" />
        </mxCell>
        <mxCell id="hqVMmyuip6Vc-hLQaziX-9" value="Accede al carrito" style="html=1;verticalAlign=bottom;endArrow=block;curved=0;rounded=0;" edge="1" parent="1" target="hqVMmyuip6Vc-hLQaziX-4">
          <mxGeometry x="-0.8373" width="80" relative="1" as="geometry">
            <mxPoint x="100" y="130" as="sourcePoint" />
            <mxPoint x="180" y="130" as="targetPoint" />
            <mxPoint as="offset" />
          </mxGeometry>
        </mxCell>
        <mxCell id="hqVMmyuip6Vc-hLQaziX-10" value="Hace clic en &quot;finalizar compra&quot;" style="html=1;verticalAlign=bottom;endArrow=block;curved=0;rounded=0;" edge="1" parent="1" target="hqVMmyuip6Vc-hLQaziX-4">
          <mxGeometry x="-0.7396" width="80" relative="1" as="geometry">
            <mxPoint x="100" y="160" as="sourcePoint" />
            <mxPoint x="180" y="160" as="targetPoint" />
            <mxPoint as="offset" />
          </mxGeometry>
        </mxCell>
        <mxCell id="hqVMmyuip6Vc-hLQaziX-11" value="Muestra instrucciones de pago por transferencia" style="html=1;verticalAlign=bottom;endArrow=block;curved=0;rounded=0;" edge="1" parent="1">
          <mxGeometry x="0.5756" width="80" relative="1" as="geometry">
            <mxPoint x="714.5" y="190" as="sourcePoint" />
            <mxPoint x="99.5" y="190" as="targetPoint" />
            <mxPoint as="offset" />
          </mxGeometry>
        </mxCell>
        <mxCell id="hqVMmyuip6Vc-hLQaziX-13" value="Realiza comprobante y dirección por whatsapp" style="html=1;verticalAlign=bottom;endArrow=block;curved=0;rounded=0;" edge="1" parent="1">
          <mxGeometry x="-0.3992" width="80" relative="1" as="geometry">
            <mxPoint x="100.25" y="270" as="sourcePoint" />
            <mxPoint x="499.75" y="270" as="targetPoint" />
            <mxPoint as="offset" />
          </mxGeometry>
        </mxCell>
        <mxCell id="hqVMmyuip6Vc-hLQaziX-16" value="alt" style="shape=umlFrame;whiteSpace=wrap;html=1;pointerEvents=0;" vertex="1" parent="1">
          <mxGeometry x="80" y="360" width="670" height="140" as="geometry" />
        </mxCell>
        <mxCell id="hqVMmyuip6Vc-hLQaziX-17" value="Confirma la venta" style="html=1;verticalAlign=bottom;endArrow=block;curved=0;rounded=0;" edge="1" parent="1" source="m-GWrjGbHzhmsx1Hn8Fp-6">
          <mxGeometry x="-0.5302" width="80" relative="1" as="geometry">
            <mxPoint x="499.5" y="390" as="sourcePoint" />
            <mxPoint x="714.5" y="390" as="targetPoint" />
            <mxPoint as="offset" />
          </mxGeometry>
        </mxCell>
        <mxCell id="hqVMmyuip6Vc-hLQaziX-18" value="Envía confirmación de pedido" style="html=1;verticalAlign=bottom;endArrow=open;dashed=1;endSize=8;curved=0;rounded=0;" edge="1" parent="1" target="hqVMmyuip6Vc-hLQaziX-3">
          <mxGeometry x="0.6708" relative="1" as="geometry">
            <mxPoint x="710" y="420" as="sourcePoint" />
            <mxPoint x="630" y="420" as="targetPoint" />
            <mxPoint as="offset" />
          </mxGeometry>
        </mxCell>
        <mxCell id="hqVMmyuip6Vc-hLQaziX-19" value="" style="endArrow=none;dashed=1;html=1;rounded=0;exitX=0.001;exitY=0.664;exitDx=0;exitDy=0;exitPerimeter=0;entryX=0.996;entryY=0.643;entryDx=0;entryDy=0;entryPerimeter=0;" edge="1" parent="1">
          <mxGeometry width="50" height="50" relative="1" as="geometry">
            <mxPoint x="80.00000000000007" y="442.94000000000005" as="sourcePoint" />
            <mxPoint x="746.6500000000002" y="440" as="targetPoint" />
          </mxGeometry>
        </mxCell>
        <mxCell id="hqVMmyuip6Vc-hLQaziX-20" value="Solicita reenviar o corregir el pago" style="html=1;verticalAlign=bottom;endArrow=open;dashed=1;endSize=8;curved=0;rounded=0;" edge="1" parent="1">
          <mxGeometry x="0.6407" relative="1" as="geometry">
            <mxPoint x="714.5" y="480" as="sourcePoint" />
            <mxPoint x="99.5" y="480" as="targetPoint" />
            <mxPoint x="1" as="offset" />
          </mxGeometry>
        </mxCell>
        <mxCell id="hqVMmyuip6Vc-hLQaziX-21" value="alt" style="shape=umlFrame;whiteSpace=wrap;html=1;pointerEvents=0;" vertex="1" parent="1">
          <mxGeometry x="80" y="520" width="670" height="60" as="geometry" />
        </mxCell>
        <mxCell id="hqVMmyuip6Vc-hLQaziX-22" value="Envía recordatorio de pago" style="html=1;verticalAlign=bottom;endArrow=open;dashed=1;endSize=8;curved=0;rounded=0;" edge="1" parent="1">
          <mxGeometry x="0.7057" relative="1" as="geometry">
            <mxPoint x="714.5" y="570" as="sourcePoint" />
            <mxPoint x="99.5" y="570" as="targetPoint" />
            <mxPoint x="1" as="offset" />
          </mxGeometry>
        </mxCell>
        <mxCell id="hqVMmyuip6Vc-hLQaziX-23" value="alt" style="shape=umlFrame;whiteSpace=wrap;html=1;pointerEvents=0;" vertex="1" parent="1">
          <mxGeometry x="80" y="640" width="440" height="60" as="geometry" />
        </mxCell>
        <mxCell id="hqVMmyuip6Vc-hLQaziX-24" value="Solicita corrección de dirección antes de confirmar orden" style="html=1;verticalAlign=bottom;endArrow=open;dashed=1;endSize=8;curved=0;rounded=0;" edge="1" parent="1">
          <mxGeometry x="0.25" relative="1" as="geometry">
            <mxPoint x="500" y="690" as="sourcePoint" />
            <mxPoint x="100" y="690" as="targetPoint" />
            <mxPoint as="offset" />
          </mxGeometry>
        </mxCell>
        <mxCell id="hqVMmyuip6Vc-hLQaziX-25" value="[Comprobante valido]" style="text;align=center;fontStyle=1;verticalAlign=middle;spacingLeft=3;spacingRight=3;strokeColor=none;rotatable=0;points=[[0,0.5],[1,0.5]];portConstraint=eastwest;html=1;" vertex="1" parent="1">
          <mxGeometry x="170" y="360" width="80" height="26" as="geometry" />
        </mxCell>
        <mxCell id="hqVMmyuip6Vc-hLQaziX-26" value="[Comprobante invalido]" style="text;align=center;fontStyle=1;verticalAlign=middle;spacingLeft=3;spacingRight=3;strokeColor=none;rotatable=0;points=[[0,0.5],[1,0.5]];portConstraint=eastwest;html=1;" vertex="1" parent="1">
          <mxGeometry x="130" y="440" width="80" height="26" as="geometry" />
        </mxCell>
        <mxCell id="hqVMmyuip6Vc-hLQaziX-27" value="[Error en la información de envió]" style="text;align=center;fontStyle=1;verticalAlign=middle;spacingLeft=3;spacingRight=3;strokeColor=none;rotatable=0;points=[[0,0.5],[1,0.5]];portConstraint=eastwest;html=1;" vertex="1" parent="1">
          <mxGeometry x="200" y="640" width="80" height="26" as="geometry" />
        </mxCell>
        <mxCell id="hqVMmyuip6Vc-hLQaziX-28" value="[Cliente no envía comprobante]" style="text;align=center;fontStyle=1;verticalAlign=middle;spacingLeft=3;spacingRight=3;strokeColor=none;rotatable=0;points=[[0,0.5],[1,0.5]];portConstraint=eastwest;html=1;" vertex="1" parent="1">
          <mxGeometry x="200" y="520" width="80" height="26" as="geometry" />
        </mxCell>
        <mxCell id="hqVMmyuip6Vc-hLQaziX-32" value="" style="shape=umlBoundary;whiteSpace=wrap;html=1;" vertex="1" parent="1">
          <mxGeometry x="685" y="770" width="55" height="40" as="geometry" />
        </mxCell>
        <mxCell id="hqVMmyuip6Vc-hLQaziX-39" value="Cliente" style="shape=umlActor;verticalLabelPosition=top;verticalAlign=bottom;html=1;labelPosition=center;align=center;" vertex="1" parent="1">
          <mxGeometry x="90" y="770" width="30" height="60" as="geometry" />
        </mxCell>
        <mxCell id="hqVMmyuip6Vc-hLQaziX-41" value="Sistema de pago" style="shape=umlActor;verticalLabelPosition=top;verticalAlign=bottom;html=1;labelPosition=center;align=center;" vertex="1" parent="1">
          <mxGeometry x="305" y="770" width="30" height="60" as="geometry" />
        </mxCell>
        <mxCell id="hqVMmyuip6Vc-hLQaziX-42" value="Administrador de sistema" style="shape=umlActor;verticalLabelPosition=top;verticalAlign=bottom;html=1;labelPosition=center;align=center;" vertex="1" parent="1">
          <mxGeometry x="485" y="770" width="30" height="60" as="geometry" />
        </mxCell>
        <mxCell id="hqVMmyuip6Vc-hLQaziX-45" value="Sistema" style="text;html=1;align=center;verticalAlign=middle;whiteSpace=wrap;rounded=0;fontFamily=Helvetica;fontSize=12;fontColor=default;" vertex="1" parent="1">
          <mxGeometry x="690" y="740" width="60" height="30" as="geometry" />
        </mxCell>
        <mxCell id="m-GWrjGbHzhmsx1Hn8Fp-4" value="" style="html=1;verticalAlign=bottom;endArrow=block;curved=0;rounded=0;" edge="1" parent="1" target="m-GWrjGbHzhmsx1Hn8Fp-3">
          <mxGeometry x="-0.4533" width="80" relative="1" as="geometry">
            <mxPoint x="100" y="230" as="sourcePoint" />
            <mxPoint x="320" y="230" as="targetPoint" />
            <mxPoint as="offset" />
          </mxGeometry>
        </mxCell>
        <mxCell id="m-GWrjGbHzhmsx1Hn8Fp-7" value="" style="html=1;verticalAlign=bottom;endArrow=block;curved=0;rounded=0;" edge="1" parent="1" target="m-GWrjGbHzhmsx1Hn8Fp-6">
          <mxGeometry x="-0.5302" width="80" relative="1" as="geometry">
            <mxPoint x="499.5" y="390" as="sourcePoint" />
            <mxPoint x="714.5" y="390" as="targetPoint" />
            <mxPoint as="offset" />
          </mxGeometry>
        </mxCell>
        <mxCell id="m-GWrjGbHzhmsx1Hn8Fp-6" value="" style="html=1;points=[[0,0,0,0,5],[0,1,0,0,-5],[1,0,0,0,5],[1,1,0,0,-5]];perimeter=orthogonalPerimeter;outlineConnect=0;targetShapes=umlLifeline;portConstraint=eastwest;newEdgeStyle={&quot;curved&quot;:0,&quot;rounded&quot;:0};" vertex="1" parent="1">
          <mxGeometry x="710" y="386" width="10" height="20" as="geometry" />
        </mxCell>
        <mxCell id="DvZ3FlkIil5nW3OASpPT-8" value="Revisa y valida la información" style="html=1;align=left;spacingLeft=2;endArrow=block;rounded=0;edgeStyle=orthogonalEdgeStyle;curved=0;rounded=0;" edge="1" parent="1">
          <mxGeometry relative="1" as="geometry">
            <mxPoint x="500" y="310" as="sourcePoint" />
            <Array as="points">
              <mxPoint x="530" y="340" />
            </Array>
            <mxPoint x="505" y="340" as="targetPoint" />
          </mxGeometry>
        </mxCell>
      </root>
    </mxGraphModel>
  </diagram>
</mxfile>
